<?xml version="1.0" standalone="no"?>
<!DOCTYPE svg PUBLIC "-//W3C//DTD SVG 20010904//EN"
 "http://www.w3.org/TR/2001/REC-SVG-20010904/DTD/svg10.dtd">
<svg version="1.0" xmlns="http://www.w3.org/2000/svg"
 width="512.000000pt" height="512.000000pt" viewBox="0 0 512.000000 512.000000"
 preserveAspectRatio="xMidYMid meet">

<g transform="translate(0.000000,512.000000) scale(0.100000,-0.100000)"
fill="#000000" stroke="none">
<path d="M1045 4946 c-159 -40 -288 -170 -324 -327 -15 -62 -15 -2567 0 -2697
56 -514 313 -1000 698 -1323 366 -308 764 -453 1196 -436 373 15 679 126 991
360 404 303 674 747 776 1272 21 108 22 130 25 1440 3 896 0 1345 -7 1378 -35
164 -173 301 -338 336 -80 17 -2949 14 -3017 -3z m2979 -321 c69 -33 66 -1 66
-729 l0 -656 -685 0 -685 0 0 700 0 700 636 0 c548 0 640 -2 668 -15z m-1624
-2915 l0 -1210 -34 0 c-52 0 -250 54 -345 94 -409 173 -756 559 -905 1006 -76
230 -86 330 -86 872 l0 448 685 0 685 0 0 -1210z"/>
</g>
</svg>
